<svg width="600" height="610" viewBox="0 0 600 610" fill="none" xmlns="http://www.w3.org/2000/svg">
<rect width="600" height="610" rx="100" fill="white"/>
<path d="M115 533V255.706C115 246.907 118.739 238.523 125.285 232.643L273.052 99.9171C284.506 89.6295 301.774 89.3061 313.604 99.1576L473.837 232.585C480.91 238.475 485 247.203 485 256.408V533" stroke="#A21515" stroke-width="17"/>
<mask id="path-3-inside-1_104_13" fill="white">
<ellipse cx="300" cy="422.5" rx="124" ry="8.5"/>
</mask>
<ellipse cx="300" cy="422.5" rx="124" ry="8.5" fill="white"/>
<path d="M407 422.5C407 413.883 413.17 409.737 413.849 409.279C415.301 408.298 416.357 408.001 416.081 408.093C415.76 408.201 414.412 408.561 411.536 409.028C406.034 409.919 397.565 410.793 386.519 411.55C364.575 413.054 333.982 414 300 414V448C334.502 448 365.908 447.043 388.844 445.471C400.237 444.69 409.927 443.732 416.975 442.59C420.374 442.039 423.898 441.332 426.881 440.333C428.257 439.872 430.572 439.011 432.871 437.46C434.396 436.43 441 431.704 441 422.5H407ZM300 414C266.018 414 235.425 413.054 213.481 411.55C202.435 410.793 193.966 409.919 188.464 409.028C185.588 408.561 184.24 408.201 183.919 408.093C183.643 408.001 184.699 408.298 186.151 409.279C186.83 409.737 193 413.883 193 422.5H159C159 431.704 165.604 436.43 167.129 437.46C169.428 439.011 171.743 439.872 173.119 440.333C176.102 441.332 179.626 442.039 183.025 442.59C190.073 443.732 199.763 444.69 211.156 445.471C234.092 447.043 265.498 448 300 448V414ZM193 422.5C193 431.117 186.83 435.263 186.151 435.721C184.699 436.702 183.643 436.999 183.919 436.907C184.24 436.799 185.588 436.439 188.464 435.972C193.966 435.081 202.435 434.207 213.481 433.45C235.425 431.946 266.018 431 300 431V397C265.498 397 234.092 397.957 211.156 399.529C199.763 400.31 190.073 401.268 183.025 402.41C179.626 402.961 176.102 403.668 173.119 404.667C171.743 405.128 169.428 405.989 167.129 407.54C165.604 408.57 159 413.296 159 422.5H193ZM300 431C333.982 431 364.575 431.946 386.519 433.45C397.565 434.207 406.034 435.081 411.536 435.972C414.412 436.439 415.76 436.799 416.081 436.907C416.357 436.999 415.301 436.702 413.849 435.721C413.17 435.263 407 431.117 407 422.5H441C441 413.296 434.396 408.57 432.871 407.54C430.572 405.989 428.257 405.128 426.881 404.667C423.898 403.668 420.374 402.961 416.975 402.41C409.927 401.268 400.237 400.31 388.844 399.529C365.908 397.957 334.502 397 300 397V431Z" fill="#A21515" mask="url(#path-3-inside-1_104_13)"/>
<path d="M221 424V502M377 424V502" stroke="#A21515" stroke-width="17"/>
</svg>
